<svg xmlns="http://www.w3.org/2000/svg" viewBox="0 0 236 48" role="img" aria-label="TheTools.World">
  <defs>
    <linearGradient id="g" x1="7" y1="5" x2="43" y2="43" gradientUnits="userSpaceOnUse">
      <stop stop-color="#1668f2"/>
      <stop offset=".58" stop-color="#0ba7d7"/>
      <stop offset="1" stop-color="#23c6a8"/>
    </linearGradient>
    <linearGradient id="shine" x1="14" y1="7" x2="39" y2="39" gradientUnits="userSpaceOnUse">
      <stop stop-color="#fff" stop-opacity=".34"/>
      <stop offset="1" stop-color="#fff" stop-opacity="0"/>
    </linearGradient>
  </defs>
  <rect x="2" y="2" width="44" height="44" rx="11" fill="url(#g)"/>
  <path d="M12 14h24M12 24h24M12 34h24M15 11v26M24 11v26M33 11v26" stroke="#fff" stroke-opacity=".16" stroke-width="1.6"/>
  <path d="M10 13c5-4 14-6 23-3 3 1 5 2 7 4v12c-5 0-10 2-14 5-5 4-12 6-18 4V18c0-2 .5-4 2-5Z" fill="url(#shine)"/>
  <path d="M11 16h26v6h-9v15h-7V22H11v-6Z" fill="#f8fbff"/>
  <path d="M18 16h7l4 12 4-12h7l-8 21h-6l-4-12-4 12h-6l6-21Z" fill="#e9fffb"/>
  <path d="M37 8.5l3 3-4.2 4.2-3-3 4.2-4.2Z" fill="#07395a" fill-opacity=".55"/>
  <circle cx="37" cy="11.5" r="1.8" fill="#fff"/>
  <text x="58" y="31" font-family="Inter, Arial, Helvetica, sans-serif" font-size="22" font-weight="800" letter-spacing="0" fill="#162235">TheTools</text>
  <circle cx="161" cy="29" r="2.4" fill="#0ba7a5"/>
  <text x="167" y="31" font-family="Inter, Arial, Helvetica, sans-serif" font-size="22" font-weight="800" letter-spacing="0" fill="#0ba7a5">World</text>
</svg>
