<svg xmlns="http://www.w3.org/2000/svg" viewBox="0 0 64 64" role="img" aria-label="TheTools.World icon">
  <defs>
    <linearGradient id="g" x1="10" y1="8" x2="56" y2="58" gradientUnits="userSpaceOnUse">
      <stop stop-color="#1668f2"/>
      <stop offset=".58" stop-color="#0ba7d7"/>
      <stop offset="1" stop-color="#23c6a8"/>
    </linearGradient>
    <linearGradient id="shine" x1="18" y1="8" x2="50" y2="52" gradientUnits="userSpaceOnUse">
      <stop stop-color="#fff" stop-opacity=".34"/>
      <stop offset="1" stop-color="#fff" stop-opacity="0"/>
    </linearGradient>
  </defs>
  <rect width="64" height="64" rx="15" fill="url(#g)"/>
  <path d="M15 17.5h34M15 31.5h34M15 45.5h34M18.5 14v35M32 14v35M45.5 14v35" stroke="#fff" stroke-opacity=".16" stroke-width="2"/>
  <path d="M12 16c7-6 19-8 32-4 4 1 7 3 9 5v17c-7 0-13 2-18 6-8 6-17 8-25 6V23c0-3 1-5 2-7Z" fill="url(#shine)"/>
  <path d="M16 20h32v8H37v19h-9V28H16v-8Z" fill="#f8fbff"/>
  <path d="M25 20h9l5 15 5-15h9L43 47h-8l-5-15-5 15h-8L25 20Z" fill="#e9fffb"/>
  <path d="M49 11.5l3.5 3.5-5 5-3.5-3.5 5-5Z" fill="#07395a" fill-opacity=".55"/>
  <circle cx="49" cy="15" r="2.2" fill="#fff"/>
</svg>
